<?xml version="1.0" standalone="no"?>
<!DOCTYPE svg PUBLIC "-//W3C//DTD SVG 20010904//EN"
 "http://www.w3.org/TR/2001/REC-SVG-20010904/DTD/svg10.dtd">
<svg version="1.0" xmlns="http://www.w3.org/2000/svg"
 width="1024.000000pt" height="1024.000000pt" viewBox="0 0 1024.000000 1024.000000"
 preserveAspectRatio="xMidYMid meet">

<g transform="translate(0.000000,1024.000000) scale(0.100000,-0.100000)"
fill="#db4a40" stroke="none">
<path d="M7555 6750 c-66 -27 -52 15 -527 -1507 -247 -791 -452 -1441 -457
-1446 -4 -4 -542 -6 -1196 -5 l-1189 3 -612 990 -612 990 1975 5 1975 5 24 28
c45 52 44 104 -2 150 l-27 27 -2094 0 -2095 0 -29 -29 c-42 -43 -40 -90 9
-167 21 -32 332 -536 691 -1119 359 -583 667 -1073 683 -1088 28 -26 35 -28
77 -22 25 4 616 10 1313 14 l1268 6 27 27 c23 23 27 36 29 90 1 52 81 315 437
1453 l435 1390 243 3 c233 2 244 3 266 24 35 33 46 84 26 125 -28 61 -42 63
-345 62 -150 0 -282 -4 -293 -9z"/>
<path d="M4764 3342 c-79 -28 -128 -73 -169 -156 -32 -64 -36 -82 -37 -149 0
-65 5 -87 30 -140 113 -242 422 -247 539 -8 24 49 28 68 28 146 0 78 -4 97
-28 147 -70 143 -220 209 -363 160z"/>
<path d="M5761 3340 c-70 -33 -116 -75 -151 -142 -99 -184 -6 -414 187 -465
99 -26 198 2 272 76 124 124 127 326 6 459 -75 83 -219 116 -314 72z"/>
</g>
</svg>
