<?xml version="1.0" standalone="no"?>
<!DOCTYPE svg PUBLIC "-//W3C//DTD SVG 20010904//EN"
 "http://www.w3.org/TR/2001/REC-SVG-20010904/DTD/svg10.dtd">
<svg version="1.0" xmlns="http://www.w3.org/2000/svg"
 width="1024.000000pt" height="1024.000000pt" viewBox="0 0 1024.000000 1024.000000"
 preserveAspectRatio="xMidYMid meet">

<g transform="translate(0.000000,1024.000000) scale(0.100000,-0.100000)"
fill="#db4a40" stroke="none">
<path d="M2544 6701 c-60 -27 -89 -73 -89 -141 0 -63 26 -109 78 -138 30 -16
140 -17 1787 -17 1685 0 1756 1 1785 18 48 30 69 65 73 127 4 61 -17 104 -71
144 l-28 21 -1747 2 c-1687 3 -1748 2 -1788 -16z"/>
<path d="M2530 5288 c-55 -38 -75 -73 -75 -133 0 -58 18 -91 69 -129 l27 -21
2557 -3 c2419 -2 2559 -1 2592 15 108 55 108 221 0 275 -33 17 -177 18 -2586
18 l-2551 0 -33 -22z"/>
<path d="M2544 3861 c-60 -27 -89 -73 -89 -141 0 -63 26 -109 78 -138 30 -16
161 -17 2202 -17 2087 0 2171 1 2200 18 50 31 69 65 73 133 4 59 3 63 -33 103
-22 24 -52 45 -73 51 -25 6 -760 10 -2177 10 -2065 0 -2141 -1 -2181 -19z"/>
</g>
</svg>
